# xmcd
#
# Track frame offsets:
#	183
#	14508
#	29308
#	44945
#	59858
#	72233
#	84170
#	98283
#	113233
#	130870
#	142495
#	152058
#	161833
#	173633
#
# Disc length: 2463 seconds
#
# Revision: 1
# Processed by: cddbd v1.5.2PL0 Copyright (c) Steve Scherf et al.
# Submitted via: audiograbber 1.83.01
#
DISCID=c6099d0e
DTITLE=AA.VV. - 059 - Paesi di sogno
DYEAR=1994
DGENRE=Folk
TTITLE0=D.Modugno - Pasqualino marajà
TTITLE1=N.Pizzi - Il tango delle capinere
TTITLE2=B.Gigli - La paloma
TTITLE3=V.DaBrescia - La spagnola
TTITLE4=C.Villa - Andalusia
TTITLE5=G.Christian - Casetta in Canadà
TTITLE6=G.Latilla - Avventura a Casablanca
TTITLE7=G.Christian - Mandulino d'o Texas
TTITLE8=C.Villa - Granada
TTITLE9=P.DiCapri - St Tropez twist
TTITLE10=F.Bongusto - Malaga
TTITLE11=A.Celentano - A New Orleans
TTITLE12=F.Buscaglione - Il dritto di Chicago
TTITLE13=Canti del fascismo - Africanella
EXTD=
EXTT0=
EXTT1=
EXTT2=
EXTT3=
EXTT4=
EXTT5=
EXTT6=
EXTT7=
EXTT8=
EXTT9=
EXTT10=
EXTT11=
EXTT12=
EXTT13=
PLAYORDER=
